{
  "accessors": [
    {
      "bufferView": 2,
      "componentType": 5126,
      "count": 54,
      "max": [
        7.8228349685668945,
        0.0,
        10.236220359802246
      ],
      "min": [
        0.0,
        -0.14960630238056183,
        0.019685039296746254
      ],
      "type": "VEC3"
    },
    {
      "bufferView": 2,
      "byteOffset": 648,
      "componentType": 5126,
      "count": 54,
      "max": [
        0.0,
        1.0,
        0.0
      ],
      "min": [
        -1.0,
        -1.0,
        0.0
      ],
      "type": "VEC3"
    },
    {
      "bufferView": 1,
      "componentType": 5126,
      "count": 54,
      "max": [
        0.9980623126029968,
        0.9987068176269531
      ],
      "min": [
        0.0005281671183183789,
        -0.0003199577331542969
      ],
      "type": "VEC2"
    },
    {
      "bufferView": 0,
      "componentType": 5125,
      "count": 156,
      "type": "SCALAR"
    },
    {
      "bufferView": 2,
      "byteOffset": 1296,
      "componentType": 5126,
      "count": 116,
      "max": [
        7.8228349685668945,
        0.0,
        10.236220359802246
      ],
      "min": [
        0.0,
        -0.14960630238056183,
        0.019685039296746254
      ],
      "type": "VEC3"
    },
    {
      "bufferView": 2,
      "byteOffset": 2688,
      "componentType": 5126,
      "count": 116,
      "max": [
        1.0,
        1.0,
        1.0
      ],
      "min": [
        -1.0,
        -1.0,
        -1.0
      ],
      "type": "VEC3"
    },
    {
      "bufferView": 1,
      "byteOffset": 432,
      "componentType": 5126,
      "count": 116,
      "max": [
        7.8228349685668945,
        1.1496063470840454
      ],
      "min": [
        -7.8228349685668945,
        -9.236220359802246
      ],
      "type": "VEC2"
    },
    {
      "bufferView": 0,
      "byteOffset": 624,
      "componentType": 5125,
      "count": 312,
      "type": "SCALAR"
    },
    {
      "bufferView": 2,
      "byteOffset": 4080,
      "componentType": 5126,
      "count": 58,
      "max": [
        7.8228349685668945,
        0.0,
        10.236220359802246
      ],
      "min": [
        0.0,
        -0.14960630238056183,
        0.019685039296746254
      ],
      "type": "VEC3"
    },
    {
      "bufferView": 2,
      "byteOffset": 4776,
      "componentType": 5126,
      "count": 58,
      "max": [
        1.0,
        0.0,
        1.0
      ],
      "min": [
        0.0,
        0.0,
        -1.0
      ],
      "type": "VEC3"
    },
    {
      "bufferView": 0,
      "byteOffset": 1872,
      "componentType": 5125,
      "count": 156,
      "type": "SCALAR"
    },
    {
      "bufferView": 2,
      "byteOffset": 5472,
      "componentType": 5126,
      "count": 53670,
      "max": [
        237.55833435058594,
        2.5006134510040283,
        164.8389129638672
      ],
      "min": [
        -113.92997741699219,
        -1652.1041259765625,
        -8.422371244876103e-09
      ],
      "type": "VEC3"
    },
    {
      "bufferView": 2,
      "byteOffset": 649512,
      "componentType": 5126,
      "count": 53670,
      "max": [
        0.9999648332595825,
        0.9835058450698853,
        0.775537371635437
      ],
      "min": [
        -0.9999952912330627,
        -1.0,
        -0.9976603984832764
      ],
      "type": "VEC3"
    },
    {
      "bufferView": 0,
      "byteOffset": 2496,
      "componentType": 5125,
      "count": 196503,
      "type": "SCALAR"
    },
    {
      "bufferView": 2,
      "byteOffset": 1293552,
      "componentType": 5126,
      "count": 62460,
      "max": [
        128.7910614013672,
        2.5006134510040283,
        164.83889770507813
      ],
      "min": [
        -237.55833435058594,
        -1652.1041259765625,
        -6.880714499857277e-05
      ],
      "type": "VEC3"
    },
    {
      "bufferView": 2,
      "byteOffset": 2043072,
      "componentType": 5126,
      "count": 62460,
      "max": [
        0.9999977946281433,
        1.0,
        0.9588695764541626
      ],
      "min": [
        -0.9997503757476807,
        -1.0,
        -0.9999952912330627
      ],
      "type": "VEC3"
    },
    {
      "bufferView": 0,
      "byteOffset": 788508,
      "componentType": 5125,
      "count": 196500,
      "type": "SCALAR"
    },
    {
      "bufferView": 2,
      "byteOffset": 2792592,
      "componentType": 5126,
      "count": 62749,
      "max": [
        164.83889770507813,
        2.5006134510040283,
        237.55833435058594
      ],
      "min": [
        -128.7910614013672,
        -1652.1041259765625,
        18.542381286621094
      ],
      "type": "VEC3"
    },
    {
      "bufferView": 2,
      "byteOffset": 3545580,
      "componentType": 5126,
      "count": 62749,
      "max": [
        0.9976603388786316,
        1.0,
        0.9997503757476807
      ],
      "min": [
        -0.9976603388786316,
        -1.0,
        -0.9999977946281433
      ],
      "type": "VEC3"
    },
    {
      "bufferView": 0,
      "byteOffset": 1574508,
      "componentType": 5125,
      "count": 196500,
      "type": "SCALAR"
    },
    {
      "bufferView": 2,
      "byteOffset": 4298568,
      "componentType": 5126,
      "count": 52715,
      "max": [
        129.91070556640625,
        2.5006134510040283,
        234.54122924804688
      ],
      "min": [
        -164.8389129638672,
        -1652.1041259765625,
        -232.0009002685547
      ],
      "type": "VEC3"
    },
    {
      "bufferView": 2,
      "byteOffset": 4931148,
      "componentType": 5126,
      "count": 52715,
      "max": [
        0.995895504951477,
        0.98350590467453,
        0.9999995827674866
      ],
      "min": [
        -0.997035562992096,
        -1.0,
        -0.9999952912330627
      ],
      "type": "VEC3"
    },
    {
      "bufferView": 0,
      "byteOffset": 2360508,
      "componentType": 5125,
      "count": 196500,
      "type": "SCALAR"
    },
    {
      "bufferView": 2,
      "byteOffset": 5563728,
      "componentType": 5126,
      "count": 53872,
      "max": [
        164.83889770507813,
        -638.9990844726563,
        -18.542381286621094
      ],
      "min": [
        -164.8389129638672,
        -1652.1041259765625,
        -237.55833435058594
      ],
      "type": "VEC3"
    },
    {
      "bufferView": 2,
      "byteOffset": 6210192,
      "componentType": 5126,
      "count": 53872,
      "max": [
        0.9976603984832764,
        0.9307748079299927,
        0.9999977350234985
      ],
      "min": [
        -0.9976603984832764,
        -0.9979535937309265,
        -0.3572291135787964
      ],
      "type": "VEC3"
    },
    {
      "bufferView": 0,
      "byteOffset": 3146508,
      "componentType": 5125,
      "count": 196503,
      "type": "SCALAR"
    },
    {
      "bufferView": 2,
      "byteOffset": 6856656,
      "componentType": 5126,
      "count": 53491,
      "max": [
        93.58423614501953,
        2.5006134510040283,
        8.422513353423255e-09
      ],
      "min": [
        -237.55833435058594,
        -1652.1041259765625,
        -188.20855712890625
      ],
      "type": "VEC3"
    },
    {
      "bufferView": 2,
      "byteOffset": 7498548,
      "componentType": 5126,
      "count": 53491,
      "max": [
        0.9999952912330627,
        0.98350590467453,
        0.9999952912330627
      ],
      "min": [
        -0.9999473094940186,
        -1.0,
        -0.775537371635437
      ],
      "type": "VEC3"
    },
    {
      "bufferView": 0,
      "byteOffset": 3932520,
      "componentType": 5125,
      "count": 196500,
      "type": "SCALAR"
    },
    {
      "bufferView": 2,
      "byteOffset": 8140440,
      "componentType": 5126,
      "count": 39218,
      "max": [
        237.55833435058594,
        2.5006134510040283,
        6.880714499857277e-05
      ],
      "min": [
        18.542381286621094,
        -1652.1041259765625,
        -164.8389129638672
      ],
      "type": "VEC3"
    },
    {
      "bufferView": 2,
      "byteOffset": 8611056,
      "componentType": 5126,
      "count": 39218,
      "max": [
        0.9999473094940186,
        0.9835058450698853,
        0.9976603984832764
      ],
      "min": [
        -0.9999952912330627,
        -1.0,
        -0.775537371635437
      ],
      "type": "VEC3"
    },
    {
      "bufferView": 0,
      "byteOffset": 4718520,
      "componentType": 5125,
      "count": 144264,
      "type": "SCALAR"
    }
  ],
  "asset": {
    "extras": {
      "author": "cairo_de (https://sketchfab.com/cairo_de)",
      "license": "CC-BY-4.0 (http://creativecommons.org/licenses/by/4.0/)",
      "source": "https://sketchfab.com/3d-models/kartell-kabuki-5cd1463963bd4f1ebca87f1142bea512",
      "title": "Kartell Kabuki"
    },
    "generator": "Sketchfab-15.45.0",
    "version": "2.0"
  },
  "bufferViews": [
    {
      "buffer": 0,
      "byteLength": 5295576,
      "name": "floatBufferViews",
      "target": 34963
    },
    {
      "buffer": 0,
      "byteLength": 1360,
      "byteOffset": 5295576,
      "byteStride": 8,
      "name": "floatBufferViews",
      "target": 34962
    },
    {
      "buffer": 0,
      "byteLength": 9081672,
      "byteOffset": 5296936,
      "byteStride": 12,
      "name": "floatBufferViews",
      "target": 34962
    }
  ],
  "buffers": [
    {
      "byteLength": 14378608,
      "uri": "scene.bin"
    }
  ],
  "images": [
    {
      "uri": "textures/acad33a80bc_baseColor.jpeg"
    }
  ],
  "materials": [
    {
      "name": "acad33a80bc",
      "pbrMetallicRoughness": {
        "baseColorTexture": {
          "index": 0
        },
        "metallicFactor": 0.0,
        "roughnessFactor": 0.35
      }
    },
    {
      "name": "material_7_4641f4ae",
      "pbrMetallicRoughness": {
        "metallicFactor": 0.0,
        "roughnessFactor": 0.7
      }
    },
    {
      "name": "mat0_c078408d",
      "pbrMetallicRoughness": {
        "metallicFactor": 0.0,
        "roughnessFactor": 0.7
      }
    }
  ],
  "meshes": [
    {
      "name": "Object_0",
      "primitives": [
        {
          "attributes": {
            "NORMAL": 1,
            "POSITION": 0,
            "TEXCOORD_0": 2
          },
          "indices": 3,
          "material": 0,
          "mode": 4
        }
      ]
    },
    {
      "name": "Object_1",
      "primitives": [
        {
          "attributes": {
            "NORMAL": 5,
            "POSITION": 4,
            "TEXCOORD_0": 6
          },
          "indices": 7,
          "material": 0,
          "mode": 4
        }
      ]
    },
    {
      "name": "Object_2",
      "primitives": [
        {
          "attributes": {
            "NORMAL": 9,
            "POSITION": 8
          },
          "indices": 10,
          "material": 1,
          "mode": 4
        }
      ]
    },
    {
      "name": "Object_3",
      "primitives": [
        {
          "attributes": {
            "NORMAL": 12,
            "POSITION": 11
          },
          "indices": 13,
          "material": 2,
          "mode": 4
        }
      ]
    },
    {
      "name": "Object_4",
      "primitives": [
        {
          "attributes": {
            "NORMAL": 15,
            "POSITION": 14
          },
          "indices": 16,
          "material": 2,
          "mode": 4
        }
      ]
    },
    {
      "name": "Object_5",
      "primitives": [
        {
          "attributes": {
            "NORMAL": 18,
            "POSITION": 17
          },
          "indices": 19,
          "material": 2,
          "mode": 4
        }
      ]
    },
    {
      "name": "Object_6",
      "primitives": [
        {
          "attributes": {
            "NORMAL": 21,
            "POSITION": 20
          },
          "indices": 22,
          "material": 2,
          "mode": 4
        }
      ]
    },
    {
      "name": "Object_7",
      "primitives": [
        {
          "attributes": {
            "NORMAL": 24,
            "POSITION": 23
          },
          "indices": 25,
          "material": 2,
          "mode": 4
        }
      ]
    },
    {
      "name": "Object_8",
      "primitives": [
        {
          "attributes": {
            "NORMAL": 27,
            "POSITION": 26
          },
          "indices": 28,
          "material": 2,
          "mode": 4
        }
      ]
    },
    {
      "name": "Object_9",
      "primitives": [
        {
          "attributes": {
            "NORMAL": 30,
            "POSITION": 29
          },
          "indices": 31,
          "material": 2,
          "mode": 4
        }
      ]
    }
  ],
  "nodes": [
    {
      "children": [
        1
      ],
      "matrix": [
        1.0,
        0.0,
        0.0,
        0.0,
        0.0,
        2.220446049250313e-16,
        -1.0,
        0.0,
        0.0,
        1.0,
        2.220446049250313e-16,
        0.0,
        0.0,
        0.0,
        0.0,
        1.0
      ],
      "name": "Sketchfab_model"
    },
    {
      "children": [
        2
      ],
      "name": "root"
    },
    {
      "children": [
        3,
        5,
        7,
        9,
        11,
        13,
        15,
        17,
        19,
        21
      ],
      "matrix": [
        1.0,
        0.0,
        0.0,
        0.0,
        0.0,
        2.220446049250313e-16,
        1.0,
        0.0,
        0.0,
        -1.0,
        2.220446049250313e-16,
        0.0,
        0.0,
        0.0,
        0.0,
        1.0
      ],
      "name": "GLTF_SceneRootNode"
    },
    {
      "children": [
        4
      ],
      "matrix": [
        0.02539999969303608,
        3.11060276733831e-18,
        6.056567360610024e-25,
        0.0,
        3.11060276733831e-18,
        -0.02539999969303608,
        -4.945562626090805e-09,
        0.0,
        -9.183549615799121e-41,
        4.945562626090805e-09,
        -0.02539999969303608,
        0.0,
        -0.6246412992477417,
        -6.505206417468126e-18,
        0.5967392325401306,
        1.0
      ],
      "name": "_0"
    },
    {
      "mesh": 0,
      "name": "Object_4"
    },
    {
      "children": [
        6
      ],
      "matrix": [
        0.02539999969303608,
        3.11060276733831e-18,
        6.056567360610024e-25,
        0.0,
        3.11060276733831e-18,
        -0.02539999969303608,
        -4.945562626090805e-09,
        0.0,
        -9.183549615799121e-41,
        4.945562626090805e-09,
        -0.02539999969303608,
        0.0,
        -0.6246412992477417,
        -6.505206417468126e-18,
        0.5967392325401306,
        1.0
      ],
      "name": "_1"
    },
    {
      "mesh": 1,
      "name": "Object_6"
    },
    {
      "children": [
        8
      ],
      "matrix": [
        0.02539999969303608,
        3.11060276733831e-18,
        6.056567360610024e-25,
        0.0,
        3.11060276733831e-18,
        -0.02539999969303608,
        -4.945562626090805e-09,
        0.0,
        -9.183549615799121e-41,
        4.945562626090805e-09,
        -0.02539999969303608,
        0.0,
        -0.6246412992477417,
        -6.505206417468126e-18,
        0.5967392325401306,
        1.0
      ],
      "name": "_2"
    },
    {
      "mesh": 2,
      "name": "Object_8"
    },
    {
      "children": [
        10
      ],
      "matrix": [
        0.0009999971371144056,
        1.2246432233302303e-19,
        2.3844684418705708e-26,
        0.0,
        1.2246432233302303e-19,
        -0.0009999971371144056,
        -1.9470662582232734e-10,
        0.0,
        2.9385228796891414e-42,
        1.9470662582232734e-10,
        -0.0009999971371144056,
        0.0,
        0.07487691193819046,
        -2.2737368624290214e-16,
        -0.04371175542473793,
        1.0
      ],
      "name": "_3"
    },
    {
      "mesh": 3,
      "name": "Object_10"
    },
    {
      "children": [
        12
      ],
      "matrix": [
        0.0009999971371144056,
        1.2246432233302303e-19,
        2.3844684418705708e-26,
        0.0,
        1.2246432233302303e-19,
        -0.0009999971371144056,
        -1.9470662582232734e-10,
        0.0,
        2.9385228796891414e-42,
        1.9470662582232734e-10,
        -0.0009999971371144056,
        0.0,
        0.07487691193819046,
        -2.2737368624290214e-16,
        -0.04371175542473793,
        1.0
      ],
      "name": "_4"
    },
    {
      "mesh": 4,
      "name": "Object_12"
    },
    {
      "children": [
        14
      ],
      "matrix": [
        0.0009999971371144056,
        1.2246432233302303e-19,
        2.3844684418705708e-26,
        0.0,
        1.2246432233302303e-19,
        -0.0009999971371144056,
        -1.9470662582232734e-10,
        0.0,
        2.9385228796891414e-42,
        1.9470662582232734e-10,
        -0.0009999971371144056,
        0.0,
        0.07487691193819046,
        -2.2737368624290214e-16,
        -0.04371175542473793,
        1.0
      ],
      "name": "_5"
    },
    {
      "mesh": 5,
      "name": "Object_14"
    },
    {
      "children": [
        16
      ],
      "matrix": [
        0.0009999971371144056,
        1.2246432233302303e-19,
        2.3844684418705708e-26,
        0.0,
        1.2246432233302303e-19,
        -0.0009999971371144056,
        -1.9470662582232734e-10,
        0.0,
        2.9385228796891414e-42,
        1.9470662582232734e-10,
        -0.0009999971371144056,
        0.0,
        0.07487691193819046,
        -2.2737368624290214e-16,
        -0.04371175542473793,
        1.0
      ],
      "name": "_6"
    },
    {
      "mesh": 6,
      "name": "Object_16"
    },
    {
      "children": [
        18
      ],
      "matrix": [
        0.0009999971371144056,
        1.2246432233302303e-19,
        2.3844684418705708e-26,
        0.0,
        1.2246432233302303e-19,
        -0.0009999971371144056,
        -1.9470662582232734e-10,
        0.0,
        2.9385228796891414e-42,
        1.9470662582232734e-10,
        -0.0009999971371144056,
        0.0,
        0.07487691193819046,
        -2.2737368624290214e-16,
        -0.04371175542473793,
        1.0
      ],
      "name": "_7"
    },
    {
      "mesh": 7,
      "name": "Object_18"
    },
    {
      "children": [
        20
      ],
      "matrix": [
        0.0009999971371144056,
        1.2246432233302303e-19,
        2.3844684418705708e-26,
        0.0,
        1.2246432233302303e-19,
        -0.0009999971371144056,
        -1.9470662582232734e-10,
        0.0,
        2.9385228796891414e-42,
        1.9470662582232734e-10,
        -0.0009999971371144056,
        0.0,
        0.07487691193819046,
        -2.2737368624290214e-16,
        -0.04371175542473793,
        1.0
      ],
      "name": "_8"
    },
    {
      "mesh": 8,
      "name": "Object_20"
    },
    {
      "children": [
        22
      ],
      "matrix": [
        0.0009999971371144056,
        1.2246432233302303e-19,
        2.3844684418705708e-26,
        0.0,
        1.2246432233302303e-19,
        -0.0009999971371144056,
        -1.9470662582232734e-10,
        0.0,
        2.9385228796891414e-42,
        1.9470662582232734e-10,
        -0.0009999971371144056,
        0.0,
        0.07487691193819046,
        -2.2737368624290214e-16,
        -0.04371175542473793,
        1.0
      ],
      "name": "_9"
    },
    {
      "mesh": 9,
      "name": "Object_22"
    }
  ],
  "samplers": [
    {
      "magFilter": 9729,
      "minFilter": 9987,
      "wrapS": 10497,
      "wrapT": 10497
    }
  ],
  "scene": 0,
  "scenes": [
    {
      "name": "Sketchfab_Scene",
      "nodes": [
        0
      ]
    }
  ],
  "textures": [
    {
      "sampler": 0,
      "source": 0
    }
  ]
}
