<svg width="24" height="24" viewBox="0 0 24 24" fill="none" xmlns="http://www.w3.org/2000/svg">
<g clip-path="url(#clip0_1838_3)">
<path fill-rule="evenodd" clip-rule="evenodd" d="M12.8304 20.527C12.4697 20.9085 12.1887 21 12 21C11.8113 21 11.5303 20.9085 11.1696 20.527C10.8068 20.1435 10.4341 19.5348 10.1 18.6997C9.51869 17.2463 9.11393 15.2565 9.02056 13H14.9794C14.8861 15.2565 14.4813 17.2463 13.9 18.6997C13.5659 19.5348 13.1932 20.1435 12.8304 20.527ZM15 12C15 9.33323 14.5658 6.96497 13.9 5.30032C13.5659 4.46523 13.1932 3.85653 12.8304 3.47296C12.4697 3.0915 12.1887 3 12 3C11.8113 3 11.5303 3.0915 11.1696 3.47296C10.8068 3.85653 10.4341 4.46523 10.1 5.30032C9.43419 6.96497 9 9.33323 9 12H15ZM15.9802 13C15.8462 16.3754 15.0408 19.257 13.9026 20.7985C17.6418 19.9938 20.5177 16.8659 20.9451 13H15.9802ZM21 12C21 7.6822 17.9594 4.07457 13.9026 3.20149C15.1517 4.89324 16 8.19896 16 12H21ZM8 12C8 8.19896 8.84829 4.89324 10.0974 3.20149C6.04059 4.07457 3 7.6822 3 12H8ZM3.05493 13C3.48228 16.8659 6.35816 19.9938 10.0974 20.7985C8.9592 19.257 8.1538 16.3754 8.01975 13H3.05493ZM22 12C22 6.47715 17.5228 2 12 2C6.47715 2 2 6.47715 2 12C2 17.5228 6.47715 22 12 22C17.5228 22 22 17.5228 22 12Z" fill="black"/>
</g>
<defs>
<clipPath id="clip0_1838_3">
<rect width="24" height="24" fill="white"/>
</clipPath>
</defs>
</svg>
