<svg width="24" height="24" viewBox="0 0 24 24" fill="none" xmlns="http://www.w3.org/2000/svg">
<rect width="24" height="24" fill="white"/>
<path fill-rule="evenodd" clip-rule="evenodd" d="M17.0008 12.2378C17.6497 10.8534 18 9.72991 18 9C18 5.68629 15.3137 3 12 3C8.68629 3 6 5.68629 6 9C6 9.72991 6.35026 10.8534 6.99921 12.2378C7.63049 13.5845 8.48116 15.0493 9.34513 16.4152C10.2069 17.7777 11.0704 19.0238 11.7194 19.9303C11.8182 20.0684 11.912 20.1985 12 20.3198C12.088 20.1985 12.1818 20.0684 12.2806 19.9303C12.9296 19.0238 13.7931 17.7777 14.6549 16.4152C15.5188 15.0493 16.3695 13.5845 17.0008 12.2378ZM12.622 21.1644C14.3358 18.8216 19 12.1557 19 9C19 5.13401 15.866 2 12 2C8.13401 2 5 5.13401 5 9C5 12.1557 9.66419 18.8216 11.378 21.1644C11.7637 21.6917 12 22 12 22C12 22 12.2363 21.6917 12.622 21.1644Z" fill="black"/>
<path fill-rule="evenodd" clip-rule="evenodd" d="M12 11C13.1046 11 14 10.1046 14 9C14 7.89543 13.1046 7 12 7C10.8954 7 10 7.89543 10 9C10 10.1046 10.8954 11 12 11ZM12 12C13.6569 12 15 10.6569 15 9C15 7.34315 13.6569 6 12 6C10.3431 6 9 7.34315 9 9C9 10.6569 10.3431 12 12 12Z" fill="black"/>
</svg>
