<svg width="24" height="24" viewBox="0 0 24 24" fill="none" xmlns="http://www.w3.org/2000/svg">
<g clip-path="url(#clip0_1838_18)">
<path d="M12 10.5C14.2091 10.5 16 8.70914 16 6.5C16 4.29086 14.2091 2.5 12 2.5C9.79086 2.5 8 4.29086 8 6.5C8 8.70914 9.79086 10.5 12 10.5Z" stroke="black"/>
<mask id="mask0_1838_18" style="mask-type:luminance" maskUnits="userSpaceOnUse" x="4" y="13" width="16" height="9">
<path d="M4 17C4 14.7909 5.79086 13 8 13H16C18.2091 13 20 14.7909 20 17V22H4V17Z" fill="white"/>
</mask>
<g mask="url(#mask0_1838_18)">
<path d="M3 17C3 14.2386 5.23858 12 8 12H16C18.7614 12 21 14.2386 21 17H19C19 15.3431 17.6569 14 16 14H8C6.34315 14 5 15.3431 5 17H3ZM3 22V17C3 14.2386 5.23858 12 8 12V14C6.34315 14 5 15.3431 5 17V22H3ZM16 12C18.7614 12 21 14.2386 21 17V22H19V17C19 15.3431 17.6569 14 16 14V12Z" fill="black"/>
</g>
</g>
<defs>
<clipPath id="clip0_1838_18">
<rect width="24" height="24" fill="white"/>
</clipPath>
</defs>
</svg>
