<svg width="24" height="24" viewBox="0 0 24 24" fill="none" xmlns="http://www.w3.org/2000/svg">
<rect width="24" height="24" fill="white"/>
<path fill-rule="evenodd" clip-rule="evenodd" d="M12.8676 19.5683C12.5184 19.9007 12.2269 20 12 20C11.7731 20 11.4816 19.9007 11.1324 19.5683C10.778 19.2311 10.4134 18.6958 10.0854 17.9578C9.47681 16.5885 9.06196 14.6732 9.00637 12.5H14.9936C14.938 14.6732 14.5232 16.5885 13.9146 17.9578C13.5866 18.6958 13.222 19.2311 12.8676 19.5683ZM14.9936 11.5H9.00637C9.06196 9.32677 9.47681 7.41148 10.0854 6.04218C10.4134 5.30422 10.778 4.76892 11.1324 4.43166C11.4816 4.0993 11.7731 4 12 4C12.2269 4 12.5184 4.0993 12.8676 4.43166C13.222 4.76892 13.5866 5.30422 13.9146 6.04218C14.5232 7.41148 14.938 9.32677 14.9936 11.5ZM15.9939 12.5C15.919 15.5792 15.1561 18.2462 14.0452 19.7362C17.3176 18.8733 19.7695 15.9893 19.9846 12.5H15.9939ZM19.9846 11.5H15.9939C15.919 8.42081 15.1561 5.75384 14.0452 4.26382C17.3176 5.12665 19.7695 8.01074 19.9846 11.5ZM20.9863 11.5C20.7269 6.76201 16.8028 3 12 3C7.02944 3 3 7.02944 3 12C3 16.9706 7.02944 21 12 21C16.8028 21 20.7269 17.238 20.9863 12.5H21V12V11.5H20.9863ZM8.00607 11.5C8.08101 8.42081 8.84386 5.75384 9.95476 4.26382C6.68236 5.12665 4.23054 8.01074 4.01537 11.5H8.00607ZM4.01537 12.5C4.23054 15.9893 6.68236 18.8733 9.95476 19.7362C8.84387 18.2462 8.08101 15.5792 8.00607 12.5H4.01537Z" fill="black"/>
</svg>
