<svg width="24" height="24" viewBox="0 0 24 24" fill="none" xmlns="http://www.w3.org/2000/svg">
<rect width="24" height="24" fill="white"/>
<path fill-rule="evenodd" clip-rule="evenodd" d="M12.964 20.4093C12.576 20.7786 12.2521 20.8889 12 20.8889C11.7479 20.8889 11.424 20.7786 11.036 20.4093C10.6422 20.0345 10.2371 19.4398 9.87265 18.6198C9.19645 17.0984 8.73551 14.9703 8.67375 12.5556H15.3263C15.2645 14.9703 14.8035 17.0984 14.1274 18.6198C13.7629 19.4398 13.3578 20.0345 12.964 20.4093ZM15.3263 11.4444H8.67375C8.73551 9.02975 9.19645 6.90164 9.87265 5.3802C10.2371 4.56024 10.6422 3.96547 11.036 3.59073C11.424 3.22144 11.7479 3.11111 12 3.11111C12.2521 3.11111 12.576 3.22144 12.964 3.59073C13.3578 3.96547 13.7629 4.56024 14.1274 5.3802C14.8035 6.90164 15.2645 9.02975 15.3263 11.4444ZM16.4377 12.5556C16.3544 15.9769 15.5068 18.9402 14.2725 20.5958C17.9085 19.6371 20.6327 16.4325 20.8718 12.5556H16.4377ZM20.8718 11.4444H16.4377C16.3544 8.02312 15.5068 5.05982 14.2725 3.40425C17.9085 4.36295 20.6327 7.56748 20.8718 11.4444ZM21.9848 11.4444C21.6966 6.18001 17.3364 2 12 2C6.47715 2 2 6.47715 2 12C2 17.5228 6.47715 22 12 22C17.3364 22 21.6966 17.82 21.9848 12.5556H22V12V11.4444H21.9848ZM7.5623 11.4444C7.64556 8.02312 8.49318 5.05982 9.72751 3.40425C6.09151 4.36295 3.36727 7.56749 3.12819 11.4444H7.5623ZM3.12819 12.5556C3.36727 16.4325 6.09152 19.6371 9.72751 20.5958C8.49318 18.9402 7.64556 15.9769 7.5623 12.5556H3.12819Z" fill="black"/>
</svg>
