<?xml version="1.0" encoding="utf-8"?>
<!-- Generator: Adobe Illustrator 26.4.0, SVG Export Plug-In . SVG Version: 6.00 Build 0)  -->
<svg version="1.1" id="Livello_1" xmlns="http://www.w3.org/2000/svg" xmlns:xlink="http://www.w3.org/1999/xlink" x="0px" y="0px"
	 viewBox="0 0 205 75" style="enable-background:new 0 0 205 75;" xml:space="preserve">
<style type="text/css">
	.st0{fill:#010202;}
</style>
<g>
	<g>
		<path class="st0" d="M7.2,11.6h11.1v18.3c0,0,0.1,1.1,0.9,0.3l17.2-18.7h13.7L31.2,31c0,0-0.4,0.2,0,0.8
			c0.4,0.6,21.1,30.6,21.1,30.6H39.4l-16-22.9c0,0-0.2-0.3-0.5,0l-4.3,4.3c0,0-0.3,0.3-0.3,0.8v17.8H7.2V11.6z"/>
		<path class="st0" d="M65.9,54.8c0,0-6.5,0.6-6.5-3.7c0,0,0.1-3.4,4.6-4.6l9.7-2.3c0,0,0.3-0.1,0.3,0.3v3.7
			C74,48.1,74.5,54.8,65.9,54.8 M84.1,54.7l0.2-18.1c0,0,1.5-12.9-16.2-12.9c-17.7,0-16.3,12.9-16.3,12.9h9l0.3-1.5
			c0.6-2.6,3.1-3.7,6.6-3.7c3.5,0,6.5,1.6,6.5,3.7c0,2.1-3,3-3,3l-8.4,1.4c-14.6,2.9-13.4,12.1-13.4,12.1c0,7.3,5.6,11.4,13.4,11.4
			c7.8,0,11.1-4.1,11.2-4.2c0.1-0.1,0.2,0,0.2,0l1.1,3.5h10.6C83.8,58.1,84.1,54.7,84.1,54.7"/>
		<path class="st0" d="M87.1,25.6h10v4.8c0,0,0.2,0.4,0.3,0c0,0,2.1-6,9.7-6c0,0,1.9,0,1.9,0.6v8.4c0,0,0,0.5-0.4,0.4
			c-0.4-0.1-1-0.2-2-0.2c-1,0-9.5,0.5-9.5,12.6V62c0,0,0,0.4-0.3,0.4h-9.5c0,0-0.5,0-0.5-0.6V26C86.8,26,86.8,25.6,87.1,25.6"/>
		<path class="st0" d="M116.2,32.9c0,0,0-0.3-0.2-0.3h-5.1c0,0-0.2,0-0.2-0.3v-6.5c0,0,0.1-0.2,0.3-0.2h5.3c0,0,0.4,0,0.4-0.5V14.1
			c0,0,0-0.3,0.3-0.3h9.5c0,0,0.3,0.1,0.3,0.3v11.1c0,0,0,0.5,0.5,0.5h5.9c0,0,0.4,0,0.4,0.3v6.3c0,0,0,0.4-0.4,0.4h-6
			c0,0-0.4,0-0.4,0.3v19.4c0,0,0.5,2.4,2.8,2.4h4c0,0,0.3,0,0.3,0.3v7.1c0,0,0.1,0.3-0.3,0.3h-8.9c0,0-8.4,0.1-8.4-9.2V32.9z"/>
		<path class="st0" d="M144.1,39.1c0,0,1.5-6.9,8-6.9c0,0,5.1-0.3,7.5,6.9H144.1z M170.3,43.2c0-6.3-4.4-19.1-18.2-19.1
			c-13.8,0-19.1,12.3-19.1,19.1c0,6.8,4.2,20.2,19.1,20.2c14.9,0,17.9-12.3,17.9-12.3l-10-0.5c-2.5,5.1-7.9,4.6-7.9,4.6
			c-7.8,0-8.2-8.2-8.2-8.2h26.4V43.2z"/>
	</g>
	<rect x="172.4" y="11.6" class="st0" width="10.6" height="50.8"/>
	<rect x="185.7" y="11.6" class="st0" width="10.6" height="50.8"/>
</g>
</svg>
