<svg width="24" height="24" viewBox="0 0 24 24" fill="none" xmlns="http://www.w3.org/2000/svg">
<rect width="24" height="24" fill="white"/>
<circle cx="11.9998" cy="6.77612" r="4.27612" stroke="black"/>
<mask id="path-3-inside-1_1388_100" fill="white">
<path d="M3.6416 18.6418C3.6416 15.8804 5.88018 13.6418 8.6416 13.6418H15.358C18.1194 13.6418 20.358 15.8804 20.358 18.6418V22H3.6416V18.6418Z"/>
</mask>
<path d="M2.6416 18.6418C2.6416 15.3281 5.32789 12.6418 8.6416 12.6418H15.358C18.6717 12.6418 21.358 15.3281 21.358 18.6418H19.358C19.358 16.4326 17.5672 14.6418 15.358 14.6418H8.6416C6.43246 14.6418 4.6416 16.4326 4.6416 18.6418H2.6416ZM20.358 22H3.6416H20.358ZM2.6416 22V18.6418C2.6416 15.3281 5.32789 12.6418 8.6416 12.6418V14.6418C6.43246 14.6418 4.6416 16.4326 4.6416 18.6418V22H2.6416ZM15.358 12.6418C18.6717 12.6418 21.358 15.3281 21.358 18.6418V22H19.358V18.6418C19.358 16.4326 17.5672 14.6418 15.358 14.6418V12.6418Z" fill="black" mask="url(#path-3-inside-1_1388_100)"/>
</svg>
