<svg width="24" height="24" viewBox="0 0 24 24" fill="none" xmlns="http://www.w3.org/2000/svg">
<rect width="24" height="24" fill="white"/>
<circle cx="12" cy="8" r="3.5" stroke="black"/>
<mask id="path-3-inside-1_1388_100" fill="white">
<path d="M5 18.75C5 15.9886 7.23858 13.75 10 13.75H14C16.7614 13.75 19 15.9886 19 18.75V20.75H5V18.75Z"/>
</mask>
<path d="M4 18.75C4 15.4363 6.68629 12.75 10 12.75H14C17.3137 12.75 20 15.4363 20 18.75H18C18 16.5409 16.2091 14.75 14 14.75H10C7.79086 14.75 6 16.5409 6 18.75H4ZM19 20.75H5H19ZM4 20.75V18.75C4 15.4363 6.68629 12.75 10 12.75V14.75C7.79086 14.75 6 16.5409 6 18.75V20.75H4ZM14 12.75C17.3137 12.75 20 15.4363 20 18.75V20.75H18V18.75C18 16.5409 16.2091 14.75 14 14.75V12.75Z" fill="black" mask="url(#path-3-inside-1_1388_100)"/>
</svg>
