<svg width="24" height="24" viewBox="0 0 24 24" fill="none" xmlns="http://www.w3.org/2000/svg">
<rect width="24" height="24" fill="white"/>
<path fill-rule="evenodd" clip-rule="evenodd" d="M15.8301 9.49128C15.8301 12.9921 12.9921 15.8301 9.49128 15.8301C5.99047 15.8301 3.1525 12.9921 3.1525 9.49128C3.1525 5.99047 5.99047 3.1525 9.49128 3.1525C12.9921 3.1525 15.8301 5.99047 15.8301 9.49128ZM14.3654 15.1803C13.0552 16.3038 11.3525 16.9826 9.49128 16.9826C5.35396 16.9826 2 13.6286 2 9.49128C2 5.35396 5.35396 2 9.49128 2C13.6286 2 16.9826 5.35396 16.9826 9.49128C16.9826 11.3525 16.3038 13.0552 15.1803 14.3653L22.0001 21.1851L21.1851 22L14.3654 15.1803Z" fill="black"/>
</svg>
