<svg width="24" height="24" viewBox="0 0 24 24" fill="none" xmlns="http://www.w3.org/2000/svg">
<rect width="24" height="24" fill="white"/>
<path fill-rule="evenodd" clip-rule="evenodd" d="M15.3232 9.82324C15.3232 12.8608 12.8608 15.3232 9.82324 15.3232C6.78568 15.3232 4.32324 12.8608 4.32324 9.82324C4.32324 6.78568 6.78568 4.32324 9.82324 4.32324C12.8608 4.32324 15.3232 6.78568 15.3232 9.82324ZM14.0524 14.7594C12.9156 15.7343 11.4382 16.3232 9.82324 16.3232C6.23339 16.3232 3.32324 13.4131 3.32324 9.82324C3.32324 6.23339 6.23339 3.32324 9.82324 3.32324C13.4131 3.32324 16.3232 6.23339 16.3232 9.82324C16.3232 11.4382 15.7343 12.9156 14.7595 14.0523L20.6768 19.9697L19.9697 20.6768L14.0524 14.7594Z" fill="black"/>
</svg>
